#VRML V2.0 utf8
# 3D model generated by easyeda2kicad.py (https://github.com/uPesy/easyeda2kicad.py)

Shape{
    appearance Appearance {
        material  Material 	{
            diffuseColor 1.0 1.0 1.0
            specularColor 0.8784313725490196 0.8784313725490196 0.8784313725490196
            ambientIntensity 1.0
            transparency 0.0
            shininess 0.5
        }
    }
    geometry IndexedFaceSet {
        ccw TRUE
        solid FALSE
        coord DEF co Coordinate {
            point [
                -0.2476 0.0641 0.0, -0.2467 0.0718 0.0, -0.1885 0.0471 0.0, -0.8724 0.3346 0.0, -0.2553 0.0303 0.0, -0.9512 0.2559 0.0, -0.2553 -0.0101 0.0, -0.2467 -0.0101 0.0, -0.2467 0.0197 0.0, -0.2207 0.0197 0.0, -0.2207 -0.0081 0.0, -0.2121 -0.0081 0.0, -0.1761 -0.0197 0.0, -0.1832 0.0909 0.0, -0.1892 0.0967 0.0, -0.1766 0.1109 0.0, -0.1761 0.0719 0.0, -0.1766 0.1513 0.0, -0.2464 0.0545 0.0, -0.1893 0.0456 0.0, -0.2426 0.0456 0.0, -0.9512 -0.0197 0.0, -0.2553 0.1513 0.0, -0.2553 0.1407 0.0, -0.2346 0.1001 0.0, -0.242 0.0954 0.0, -0.2489 0.0882 0.0, -0.2531 0.0807 0.0, -0.1852 0.1109 0.0, -0.1966 0.1009 0.0, -0.1852 0.1407 0.0, -0.2556 0.0719 0.0, -0.2563 0.0642 0.0, -0.2556 0.0547 0.0, -0.2531 0.0456 0.0, -0.1766 0.0303 0.0, -0.1806 0.0456 0.0, -0.1766 0.077 0.0, -0.1792 0.0846 0.0, -0.2446 0.0777 0.0, -0.241 0.0832 0.0, -0.2357 0.0879 0.0, -0.2151 0.0937 0.0, -0.2066 0.0929 0.0, -0.1998 0.0907 0.0, -0.1851 0.0732 0.0, -0.1842 0.0659 0.0, -0.1872 0.0789 0.0, -0.1904 0.0838 0.0, -0.1943 0.0875 0.0, -0.1854 0.0554 0.0, -0.205 0.1034 0.0, -0.2144 0.1042 0.0, -0.2256 0.1031 0.0, -0.2296 0.0912 0.0, -0.2212 0.0933 0.0, -0.2121 0.0197 0.0, -0.1852 0.0197 0.0, -0.1852 -0.012 0.0, -0.1766 -0.012 0.0, -0.1772 0.054 0.0, -0.1761 0.062 0.0, 0.1512 0.0787 0.0, -0.1756 0.0652 0.0, -0.1756 0.0673 0.0, -0.1761 0.3346 0.0, -0.1047 0.3346 0.0, -0.2553 -0.1262 0.0, -0.9512 -0.2559 0.0, -0.2553 -0.1368 0.0, -0.1766 -0.156 0.0, -0.1766 -0.1675 0.0, -0.1761 -0.3346 0.0, -0.8724 -0.3346 0.0, -0.1766 -0.0487 0.0, -0.1766 -0.0273 0.0, -0.2553 -0.0273 0.0, -0.2553 -0.0496 0.0, -0.2541 -0.0609 0.0, -0.2509 -0.0701 0.0, -0.2451 -0.0787 0.0, -0.1766 -0.0965 0.0, -0.1802 -0.0678 0.0, -0.1775 -0.0587 0.0, -0.1982 -0.0868 0.0, -0.1912 -0.0824 0.0, -0.185 -0.0759 0.0, -0.1766 -0.108 0.0, -0.1986 -0.1155 0.0, -0.1986 -0.148 0.0, -0.245 -0.0788 0.0, -0.2389 -0.0844 0.0, -0.232 -0.0881 0.0, -0.2242 -0.0902 0.0, -0.2169 -0.0907 0.0, -0.2064 -0.0896 0.0, 0.7024 -0.0197 0.0, 0.7024 -0.0787 0.0, 0.1512 -0.0787 0.0, -0.1047 -0.3346 0.0, 0.7024 0.0787 0.0
            ]
        }
        coordIndex [
            0,1,2,-1,3,4,5,-1,5,4,6,-1,7,8,9,-1,10,11,12,-1,13,14,15,-1,16,15,17,-1,0,2,18,-1,18,2,19,-1,18,19,20,-1,9,10,7,-1,7,10,12,-1,7,12,6,-1,6,12,21,-1,6,21,5,-1,3,22,23,-1,24,25,23,-1,23,25,26,-1,23,26,27,-1,15,14,28,-1,28,14,29,-1,28,29,30,-1,27,31,23,-1,23,31,32,-1,23,32,3,-1,3,32,33,-1,3,33,4,-1,33,34,4,-1,4,34,20,-1,4,20,35,-1,35,20,19,-1,35,19,36,-1,16,37,15,-1,15,37,38,-1,15,38,13,-1,1,39,2,-1,2,39,40,-1,2,40,41,-1,42,43,2,-1,2,43,44,-1,45,46,47,-1,47,46,48,-1,44,49,2,-1,2,49,48,-1,2,48,50,-1,50,48,46,-1,29,51,30,-1,30,51,52,-1,30,52,23,-1,23,52,53,-1,23,53,24,-1,41,54,2,-1,2,54,55,-1,2,55,42,-1,56,57,11,-1,11,57,58,-1,11,58,12,-1,12,58,59,-1,12,59,35,-1,36,60,35,-1,35,60,61,-1,35,61,12,-1,12,61,62,-1,61,63,62,-1,62,63,64,-1,62,64,16,-1,22,3,17,-1,17,3,65,-1,17,65,16,-1,16,65,66,-1,16,66,62,-1,21,67,68,-1,68,67,69,-1,70,12,71,-1,71,12,72,-1,71,72,69,-1,69,72,73,-1,69,73,68,-1,74,75,12,-1,12,75,76,-1,12,76,21,-1,21,76,77,-1,77,78,21,-1,21,78,79,-1,21,79,67,-1,67,79,80,-1,81,82,83,-1,84,85,81,-1,81,85,86,-1,81,86,82,-1,83,74,81,-1,81,74,12,-1,81,12,87,-1,87,12,70,-1,87,70,88,-1,88,70,89,-1,80,90,67,-1,67,90,91,-1,67,91,92,-1,92,93,67,-1,67,93,94,-1,67,94,81,-1,81,94,95,-1,81,95,84,-1,96,97,98,-1,99,72,98,-1,98,72,12,-1,98,12,96,-1,96,12,62,-1,96,62,100,-1,
        ]
    }
}
Shape{
    appearance Appearance {
        material  Material 	{
            diffuseColor 0.25098039215686274 0.25098039215686274 0.25098039215686274
            specularColor 0.12549019607843137 0.12549019607843137 0.12549019607843137
            ambientIntensity 0.251
            transparency 0.0
            shininess 0.5
        }
    }
    geometry IndexedFaceSet {
        ccw TRUE
        solid FALSE
        coord DEF co Coordinate {
            point [
                0.2693 -0.9055 0.0039, 0.2693 -0.6693 0.0039, 0.2693 -0.9055 0.1614, 0.2693 -0.6693 0.1575, 0.2693 -0.5118 0.0039, 0.2693 -0.0787 0.0039, 0.2693 -0.5118 0.1575, 0.2693 -0.0787 0.1575, 0.2693 0.0787 0.1575, 0.2693 0.0787 0.0039, 0.2693 0.5118 0.0039, 0.2693 0.6693 0.0039, 0.2693 0.9055 0.0039, 0.2693 0.6693 0.1575, 0.2693 0.9055 0.1614, 0.2693 0.5118 0.1575, 0.1512 -0.6693 0.0039, 0.1512 -0.5118 0.0039, -0.715 -0.9055 0.0039, -0.715 -0.3346 0.0039, -0.1047 -0.3346 0.0039, 0.1512 -0.0787 0.0039, 0.1512 0.5118 0.0039, 0.1512 0.6693 0.0039, -0.1047 0.3346 0.0039, -0.715 0.3346 0.0039, -0.715 0.9055 0.0039, 0.1512 0.0787 0.0039, -0.715 -0.3346 0.1575, -0.715 -0.9055 0.1614, -0.715 0.3346 0.1575, -0.715 0.9055 0.1614, -0.6756 0.8661 0.6339, -0.6756 0.1722 0.6339, -0.2777 0.2193 0.6339, -0.2588 0.2383 0.6339, 0.2299 0.8661 0.6339, -0.2732 0.2383 0.6339, -0.2777 0.8661 0.6339, -0.2747 0.2351 0.6339, -0.277 0.2262 0.6339, -0.1945 0.1818 0.6339, -0.2777 0.1722 0.6339, -0.1801 0.1818 0.6339, 0.2299 0.1722 0.6339, -0.2748 0.1935 0.6339, -0.2775 0.2032 0.6339, -0.2777 0.2054 0.6339, -0.2783 0.2135 0.6339, -0.223 0.2287 0.6339, -0.2186 0.2333 0.6339, -0.231 0.1896 0.6339, -0.2363 0.184 0.6339, -0.2586 0.179 0.6339, -0.2635 0.1808 0.6339, -0.2087 0.2378 0.6339, -0.2039 0.2383 0.6339, -0.197 0.2374 0.6339, -0.1923 0.2355 0.6339, -0.2677 0.1836 0.6339, -0.2712 0.1874 0.6339, -0.2139 0.2361 0.6339, -0.2412 0.1807 0.6339, -0.2463 0.1789 0.6339, -0.2517 0.1782 0.6339, -0.2318 0.2142 0.6339, -0.2632 0.2311 0.6339, -0.2394 0.1999 0.6339, -0.2668 0.2194 0.6339, -0.2395 0.1997 0.6339, -0.1785 0.2143 0.6339, -0.1774 0.2034 0.6339, -0.1779 0.1925 0.6339, -0.2225 0.2041 0.6339, -0.1907 0.1893 0.6339, -0.2177 0.2133 0.6339, -0.1887 0.1977 0.6339, -0.1882 0.2045 0.6339, -0.1881 0.2324 0.6339, -0.1844 0.2281 0.6339, -0.1812 0.2226 0.6339, -0.1996 0.2248 0.6339, -0.2026 0.2251 0.6339, -0.1889 0.2114 0.6339, -0.2675 0.212 0.6339, -0.2669 0.2049 0.6339, -0.2656 0.1999 0.6339, -0.1905 0.2165 0.6339, -0.1927 0.2202 0.6339, -0.1949 0.2225 0.6339, -0.2063 0.2246 0.6339, -0.209 0.2236 0.6339, -0.2115 0.2219 0.6339, -0.2141 0.2189 0.6339, -0.2636 0.1963 0.6339, -0.2617 0.1943 0.6339, -0.2597 0.193 0.6339, -0.197 0.2238 0.6339, -0.2567 0.1919 0.6339, -0.2528 0.1914 0.6339, -0.2431 0.1955 0.6339, -0.2492 0.1919 0.6339, -0.2464 0.193 0.6339, -0.2612 0.093 0.6339, -0.272 0.093 0.6339, -0.2777 0.0846 0.6339, -0.2763 0.1035 0.6339, -0.2045 0.161 0.6339, -0.1952 0.1552 0.6339, -0.1867 0.1462 0.6339, -0.1783 0.1044 0.6339, -0.1813 0.093 0.6339, 0.2299 0.0846 0.6339, -0.1945 0.093 0.6339, -0.1898 0.1041 0.6339, -0.2621 0.0948 0.6339, -0.1882 0.1161 0.6339, -0.1893 0.1258 0.6339, -0.2738 0.1417 0.6339, -0.2687 0.1496 0.6339, -0.2612 0.1568 0.6339, -0.252 0.1621 0.6339, -0.192 0.1331 0.6339, -0.1966 0.1399 0.6339, -0.2031 0.1459 0.6339, -0.2289 0.153 0.6339, -0.2396 0.152 0.6339, -0.248 0.1494 0.6339, -0.2664 0.1275 0.6339, -0.2675 0.1183 0.6339, -0.2638 0.1346 0.6339, -0.2597 0.1407 0.6339, -0.2549 0.1453 0.6339, -0.266 0.1052 0.6339, -0.2107 0.1499 0.6339, -0.2212 0.1526 0.6339, -0.1814 0.1369 0.6339, -0.1782 0.1259 0.6339, -0.1774 0.1162 0.6339, -0.2415 0.1652 0.6339, -0.2297 0.1662 0.6339, -0.2157 0.1648 0.6339, -0.2777 0.1135 0.6339, -0.2782 0.1174 0.6339, -0.6756 0.0846 0.6339, -0.2783 0.1201 0.6339, -0.2777 0.1259 0.6339, -0.277 0.1322 0.6339, -0.2154 -0.0205 0.6339, -0.2175 -0.0263 0.6339, -0.1921 -0.0354 0.6339, -0.2211 -0.0318 0.6339, -0.2259 -0.036 0.6339, -0.2318 -0.0391 0.6339, -0.2777 -0.0046 0.6339, -0.2774 -0.0024 0.6339, -0.2777 0.0306 0.6339, -0.2753 0.0036 0.6339, -0.2027 0.0166 0.6339, -0.192 0.0104 0.6339, 0.2299 0.0306 0.6339, -0.1853 0.004 0.6339, -0.1809 -0.0028 0.6339, -0.1782 -0.0109 0.6339, 0.2299 -0.0474 0.6339, -0.1774 -0.0188 0.6339, -0.1782 -0.0274 0.6339, -0.2721 0.0085 0.6339, -0.2674 0.0131 0.6339, -0.2603 0.0173 0.6339, -0.2612 -0.038 0.6339, -0.2673 -0.034 0.6339, -0.2777 -0.0474 0.6339, -0.2722 -0.029 0.6339, -0.2756 -0.0233 0.6339, -0.2492 0.0208 0.6339, -0.2337 0.0222 0.6339, -0.216 0.0206 0.6339, -0.2287 0.0098 0.6339, -0.2287 0.0095 0.6339, -0.2182 0.009 0.6339, -0.2231 0.0058 0.6339, -0.2069 0.006 0.6339, -0.2193 0.0019 0.6339, -0.1995 0.0021 0.6339, -0.2166 -0.0028 0.6339, -0.1942 -0.0027 0.6339, -0.2151 -0.008 0.6339, -0.1909 -0.0076 0.6339, -0.2147 -0.0131 0.6339, -0.1892 -0.0275 0.6339, -0.1882 -0.0191 0.6339, -0.189 -0.0127 0.6339, -0.2397 -0.0411 0.6339, -0.2452 -0.0414 0.6339, -0.2541 -0.0405 0.6339, -0.1813 -0.0354 0.6339, -0.1801 -0.0331 0.6339, -0.2783 -0.01 0.6339, -0.6756 0.0306 0.6339, -0.2777 -0.0166 0.6339, -0.6756 -0.0474 0.6339, -0.2777 -0.0167 0.6339, -0.6756 -0.5558 0.6339, -0.2777 -0.2182 0.6339, -0.6756 -0.1782 0.6339, -0.2778 -0.2177 0.6339, -0.2783 -0.2104 0.6339, -0.2777 -0.1782 0.6339, -0.2777 -0.2038 0.6339, -0.2772 -0.1988 0.6339, -0.2745 -0.1903 0.6339, -0.2732 -0.1878 0.6339, -0.26 -0.1878 0.6339, -0.2646 -0.1959 0.6339, -0.2315 -0.1975 0.6339, -0.2315 -0.2056 0.6339, -0.2565 -0.2446 0.6339, -0.2621 -0.2424 0.6339, -0.2777 -0.5558 0.6339, -0.2675 -0.2387 0.6339, -0.2721 -0.2334 0.6339, -0.2755 -0.227 0.6339, -0.267 -0.2043 0.6339, -0.2675 -0.2104 0.6339, -0.2321 -0.2149 0.6339, -0.2669 -0.2169 0.6339, -0.1957 -0.1915 0.6339, -0.2207 -0.1975 0.6339, -0.192 -0.1969 0.6339, -0.2207 -0.2052 0.6339, -0.1891 -0.2038 0.6339, -0.22 -0.2133 0.6339, -0.2042 -0.2287 0.6339, -0.2038 -0.2287 0.6339, -0.1831 -0.2332 0.6339, -0.1869 -0.2372 0.6339, 0.2299 -0.5558 0.6339, -0.1909 -0.2397 0.6339, -0.1956 -0.2413 0.6339, -0.2496 -0.2323 0.6339, -0.2452 -0.2318 0.6339, -0.2418 -0.2307 0.6339, -0.2331 -0.2393 0.6339, -0.2295 -0.2346 0.6339, -0.2121 -0.2396 0.6339, -0.2163 -0.2369 0.6339, -0.2653 -0.222 0.6339, -0.2633 -0.2255 0.6339, -0.2606 -0.2284 0.6339, -0.2186 -0.2188 0.6339, -0.2165 -0.2227 0.6339, -0.2143 -0.2252 0.6339, -0.2118 -0.2269 0.6339, -0.2087 -0.2281 0.6339, -0.1908 -0.2223 0.6339, -0.1893 -0.2188 0.6339, -0.1998 -0.2283 0.6339, -0.1883 -0.2131 0.6339, -0.1882 -0.2107 0.6339, -0.2008 -0.2419 0.6339, -0.207 -0.2412 0.6339, -0.2252 -0.2218 0.6339, -0.2255 -0.2218 0.6339, -0.2246 -0.2239 0.6339, -0.227 -0.229 0.6339, -0.2213 -0.2311 0.6339, -0.2181 -0.2353 0.6339, -0.2372 -0.2424 0.6339, -0.2416 -0.2444 0.6339, -0.2388 -0.2288 0.6339, -0.2364 -0.2261 0.6339, -0.2341 -0.2221 0.6339, -0.192 -0.2241 0.6339, -0.1966 -0.2274 0.6339, -0.1941 -0.226 0.6339, -0.1849 -0.1915 0.6339, 0.2299 -0.1782 0.6339, -0.1804 -0.1991 0.6339, -0.178 -0.2071 0.6339, -0.2465 -0.2454 0.6339, -0.2488 -0.2455 0.6339, -0.2577 -0.2304 0.6339, -0.2543 -0.2317 0.6339, -0.1774 -0.214 0.6339, -0.1782 -0.2219 0.6339, -0.1802 -0.2283 0.6339, -0.2339 0.0762 0.6339, -0.2339 0.039 0.6339, -0.2435 0.039 0.6339, -0.2435 0.0762 0.6339, -0.2663 -0.1146 0.6339, -0.2771 -0.1146 0.6339, -0.2777 -0.123 0.6339, -0.1792 -0.0705 0.6339, -0.1776 -0.0784 0.6339, -0.1782 -0.0909 0.6339, -0.1803 -0.0975 0.6339, 0.2299 -0.123 0.6339, -0.2208 -0.1083 0.6339, -0.2275 -0.1036 0.6339, -0.2382 -0.0912 0.6339, -0.1774 -0.0825 0.6339, -0.2722 -0.0534 0.6339, -0.2629 -0.0543 0.6339, -0.2771 -0.0534 0.6339, -0.2002 -0.057 0.6339, -0.1882 -0.057 0.6339, -0.1825 -0.0638 0.6339, -0.2556 -0.0567 0.6339, -0.2494 -0.0607 0.6339, -0.2412 -0.069 0.6339, -0.184 -0.1034 0.6339, -0.1881 -0.1074 0.6339, -0.1927 -0.1101 0.6339, -0.2388 -0.0902 0.6339, -0.2501 -0.0749 0.6339, -0.2547 -0.0702 0.6339, -0.2343 -0.0781 0.6339, -0.2328 -0.0801 0.6339, -0.1971 -0.0602 0.6339, -0.2581 -0.068 0.6339, -0.2616 -0.0668 0.6339, -0.2663 -0.0663 0.6339, -0.1981 -0.1117 0.6339, -0.2038 -0.1122 0.6339, -0.213 -0.1112 0.6339, -0.2212 -0.0939 0.6339, -0.2158 -0.0977 0.6339, -0.2108 -0.0995 0.6339, -0.2048 -0.1002 0.6339, -0.2005 -0.0998 0.6339, -0.1972 -0.0986 0.6339, -0.1944 -0.0969 0.6339, -0.1922 -0.0946 0.6339, -0.1903 -0.0916 0.6339, -0.1888 -0.0869 0.6339, -0.1882 -0.0813 0.6339, -0.1893 -0.0739 0.6339, -0.1922 -0.0672 0.6339, -0.2339 -0.1314 0.6339, -0.2339 -0.1686 0.6339, -0.2435 -0.1686 0.6339, -0.2435 -0.1314 0.6339, -0.6756 -0.123 0.6339, 0.2299 -0.8661 0.6339, -0.2777 -0.8661 0.6339, -0.6756 -0.8661 0.6339
            ]
        }
        coordIndex [
            0,1,2,-1,2,1,3,-1,4,5,6,-1,6,5,7,-1,8,9,10,-1,11,12,13,-1,13,12,14,-1,13,14,15,-1,10,15,8,-1,8,15,14,-1,8,14,7,-1,7,14,2,-1,7,2,6,-1,6,2,3,-1,16,1,0,-1,5,4,17,-1,18,19,20,-1,0,18,16,-1,16,18,20,-1,16,20,17,-1,17,20,21,-1,17,21,5,-1,22,10,9,-1,12,11,23,-1,24,25,26,-1,12,23,26,-1,26,23,22,-1,26,22,24,-1,24,22,9,-1,24,9,27,-1,19,18,28,-1,28,18,29,-1,28,29,30,-1,30,29,31,-1,30,31,25,-1,25,31,26,-1,32,33,34,-1,35,36,37,-1,37,36,38,-1,37,38,39,-1,32,34,38,-1,38,34,40,-1,38,40,39,-1,41,42,43,-1,43,42,44,-1,45,46,42,-1,42,46,47,-1,42,47,33,-1,33,47,48,-1,33,48,34,-1,49,50,35,-1,51,52,41,-1,53,54,42,-1,55,56,36,-1,36,56,57,-1,36,57,58,-1,54,59,42,-1,42,59,60,-1,42,60,45,-1,35,50,36,-1,36,50,61,-1,36,61,55,-1,52,62,41,-1,41,62,63,-1,41,63,42,-1,42,63,64,-1,42,64,53,-1,49,35,65,-1,65,35,66,-1,65,66,67,-1,67,66,68,-1,67,68,69,-1,70,71,44,-1,44,71,72,-1,44,72,43,-1,51,41,73,-1,73,41,74,-1,73,74,75,-1,75,74,76,-1,75,76,77,-1,58,78,36,-1,36,78,79,-1,36,79,44,-1,44,79,80,-1,44,80,70,-1,81,82,83,-1,68,84,69,-1,69,84,85,-1,69,85,86,-1,87,88,89,-1,83,82,77,-1,77,82,90,-1,77,90,91,-1,91,92,77,-1,77,92,93,-1,77,93,75,-1,86,94,69,-1,69,94,95,-1,69,95,96,-1,87,89,83,-1,83,89,97,-1,83,97,81,-1,96,98,69,-1,69,98,99,-1,69,99,100,-1,100,99,101,-1,100,101,102,-1,103,104,105,-1,105,104,106,-1,107,108,44,-1,44,108,109,-1,110,111,112,-1,112,111,113,-1,112,113,103,-1,103,113,114,-1,103,114,115,-1,115,114,116,-1,115,116,117,-1,118,119,42,-1,42,119,120,-1,42,120,121,-1,117,122,115,-1,115,122,123,-1,115,123,124,-1,125,126,115,-1,115,126,127,-1,128,129,130,-1,130,129,131,-1,127,132,115,-1,115,132,131,-1,115,131,133,-1,133,131,129,-1,124,134,115,-1,115,134,135,-1,115,135,125,-1,109,136,44,-1,44,136,137,-1,44,137,112,-1,112,137,138,-1,112,138,110,-1,121,139,42,-1,42,139,140,-1,42,140,44,-1,44,140,141,-1,44,141,107,-1,142,143,144,-1,144,143,33,-1,143,145,33,-1,33,145,146,-1,33,146,42,-1,42,146,147,-1,42,147,118,-1,148,149,150,-1,149,151,150,-1,150,151,152,-1,150,152,153,-1,154,155,156,-1,156,155,157,-1,158,159,160,-1,160,159,161,-1,161,162,160,-1,160,162,163,-1,160,163,164,-1,164,163,165,-1,164,165,166,-1,157,167,156,-1,156,167,168,-1,156,168,169,-1,170,171,172,-1,172,171,173,-1,172,173,174,-1,169,175,156,-1,156,175,176,-1,156,176,160,-1,160,176,177,-1,160,177,158,-1,178,179,180,-1,180,179,181,-1,180,181,182,-1,182,181,183,-1,182,183,184,-1,184,183,185,-1,184,185,186,-1,186,185,187,-1,186,187,188,-1,188,187,189,-1,150,190,148,-1,148,190,191,-1,148,191,189,-1,189,191,192,-1,189,192,188,-1,193,194,172,-1,172,194,195,-1,172,195,170,-1,153,193,150,-1,150,193,172,-1,150,172,196,-1,196,172,164,-1,196,164,197,-1,197,164,166,-1,198,199,200,-1,200,199,201,-1,200,201,202,-1,203,204,205,-1,205,204,206,-1,205,206,207,-1,208,209,210,-1,210,211,208,-1,208,211,212,-1,208,212,213,-1,213,214,215,-1,215,214,216,-1,217,218,219,-1,218,220,219,-1,219,220,221,-1,219,221,222,-1,214,223,216,-1,216,223,224,-1,216,224,225,-1,225,224,226,-1,227,228,229,-1,229,228,230,-1,229,230,231,-1,231,230,232,-1,231,233,234,-1,235,236,237,-1,237,236,238,-1,237,238,239,-1,240,241,225,-1,225,241,242,-1,243,237,244,-1,244,237,245,-1,244,245,246,-1,226,247,225,-1,225,247,248,-1,225,248,249,-1,232,250,231,-1,231,250,251,-1,231,251,252,-1,252,253,231,-1,231,253,254,-1,231,254,233,-1,255,256,257,-1,257,256,258,-1,257,258,234,-1,234,258,259,-1,234,259,231,-1,239,260,237,-1,237,260,261,-1,237,261,245,-1,262,263,264,-1,264,263,265,-1,264,265,266,-1,266,265,244,-1,266,244,267,-1,267,244,246,-1,268,269,219,-1,270,271,242,-1,242,271,272,-1,242,272,225,-1,255,257,273,-1,273,257,274,-1,273,274,275,-1,215,228,213,-1,213,228,227,-1,213,227,208,-1,208,227,276,-1,208,276,277,-1,277,276,278,-1,277,278,279,-1,269,280,219,-1,219,280,281,-1,219,281,217,-1,249,282,225,-1,225,282,283,-1,225,283,240,-1,279,284,277,-1,277,284,285,-1,277,285,237,-1,237,285,286,-1,237,286,235,-1,103,105,112,-1,112,105,287,-1,112,287,160,-1,160,287,288,-1,160,288,156,-1,156,288,289,-1,156,289,105,-1,105,289,290,-1,105,290,287,-1,106,142,105,-1,105,142,144,-1,105,144,156,-1,156,144,199,-1,156,199,154,-1,154,199,198,-1,291,292,293,-1,164,294,295,-1,296,297,298,-1,299,300,291,-1,291,300,301,-1,164,295,298,-1,298,295,302,-1,298,302,296,-1,303,304,172,-1,293,292,172,-1,172,292,305,-1,172,305,303,-1,304,306,172,-1,172,306,307,-1,172,307,164,-1,164,307,308,-1,164,308,294,-1,304,309,306,-1,306,309,310,-1,306,310,311,-1,297,312,298,-1,298,312,313,-1,298,313,314,-1,301,315,291,-1,291,315,316,-1,291,316,317,-1,311,318,306,-1,306,318,319,-1,306,319,320,-1,317,321,291,-1,291,321,322,-1,291,322,323,-1,314,324,298,-1,298,324,325,-1,298,325,291,-1,291,325,326,-1,291,326,299,-1,319,327,328,-1,328,329,319,-1,319,329,330,-1,319,330,331,-1,331,332,319,-1,319,332,333,-1,319,333,334,-1,334,335,319,-1,319,335,336,-1,319,336,337,-1,337,338,319,-1,319,338,339,-1,319,339,320,-1,291,293,298,-1,298,293,340,-1,298,340,277,-1,277,340,341,-1,277,341,208,-1,208,341,342,-1,208,342,293,-1,293,342,343,-1,293,343,340,-1,174,202,172,-1,172,202,201,-1,172,201,293,-1,293,201,344,-1,293,344,208,-1,208,344,205,-1,208,205,209,-1,209,205,207,-1,243,268,237,-1,237,268,219,-1,237,219,345,-1,345,219,346,-1,222,204,219,-1,219,204,203,-1,219,203,346,-1,346,203,347,-1,14,12,31,-1,31,12,26,-1,29,18,2,-1,2,18,0,-1,36,14,38,-1,38,14,31,-1,38,31,32,-1,347,203,29,-1,29,203,205,-1,205,344,29,-1,29,344,201,-1,29,201,31,-1,31,201,199,-1,199,144,31,-1,31,144,33,-1,31,33,32,-1,14,36,44,-1,44,112,14,-1,14,112,160,-1,14,160,2,-1,2,160,164,-1,2,164,298,-1,298,277,2,-1,2,277,237,-1,2,237,345,-1,2,345,29,-1,29,345,346,-1,29,346,347,-1,
        ]
    }
}
Shape{
    appearance Appearance {
        material  Material 	{
            diffuseColor 0.6470588235294118 0.6470588235294118 0.6470588235294118
            specularColor 0.3215686274509804 0.3215686274509804 0.3215686274509804
            ambientIntensity 0.6471
            transparency 0.0
            shininess 0.5
        }
    }
    geometry IndexedFaceSet {
        ccw TRUE
        solid FALSE
        coord DEF co Coordinate {
            point [
                -0.2732 -0.1878 0.6299, -0.26 -0.1878 0.6299, -0.2732 -0.1878 0.6339, -0.26 -0.1878 0.6339, -0.2675 -0.2104 0.6299, -0.2675 -0.2104 0.6339, -0.267 -0.2043 0.6339, -0.267 -0.2043 0.6299, -0.2646 -0.1959 0.6339, -0.2646 -0.1959 0.6299, -0.2496 -0.2323 0.6299, -0.2496 -0.2323 0.6339, -0.2543 -0.2317 0.6339, -0.2543 -0.2317 0.6299, -0.2577 -0.2304 0.6339, -0.2577 -0.2304 0.6299, -0.2606 -0.2284 0.6339, -0.2606 -0.2284 0.6299, -0.2633 -0.2255 0.6339, -0.2633 -0.2255 0.6299, -0.2653 -0.222 0.6339, -0.2653 -0.222 0.6299, -0.2669 -0.2169 0.6339, -0.2669 -0.2169 0.6299, -0.2315 -0.2056 0.6299, -0.2315 -0.2056 0.6339, -0.2321 -0.2149 0.6339, -0.2321 -0.2149 0.6299, -0.2341 -0.2221 0.6339, -0.2341 -0.2221 0.6299, -0.2364 -0.2261 0.6339, -0.2364 -0.2261 0.6299, -0.2388 -0.2288 0.6339, -0.2388 -0.2288 0.6299, -0.2418 -0.2307 0.6339, -0.2418 -0.2307 0.6299, -0.2452 -0.2318 0.6339, -0.2452 -0.2318 0.6299, -0.2315 -0.1975 0.6299, -0.2315 -0.1975 0.6339, -0.2207 -0.1975 0.6299, -0.2207 -0.1975 0.6339, -0.2207 -0.2052 0.6299, -0.2207 -0.2052 0.6339, -0.2038 -0.2287 0.6299, -0.2038 -0.2287 0.6339, -0.2042 -0.2287 0.6339, -0.2042 -0.2287 0.6299, -0.2087 -0.2281 0.6339, -0.2087 -0.2281 0.6299, -0.2118 -0.2269 0.6339, -0.2118 -0.2269 0.6299, -0.2143 -0.2252 0.6339, -0.2143 -0.2252 0.6299, -0.2165 -0.2227 0.6339, -0.2165 -0.2227 0.6299, -0.2186 -0.2188 0.6339, -0.2186 -0.2188 0.6299, -0.22 -0.2133 0.6339, -0.22 -0.2133 0.6299, -0.1882 -0.2107 0.6299, -0.1882 -0.2107 0.6339, -0.1883 -0.2131 0.6339, -0.1883 -0.2131 0.6299, -0.1893 -0.2188 0.6339, -0.1893 -0.2188 0.6299, -0.1908 -0.2223 0.6339, -0.1908 -0.2223 0.6299, -0.192 -0.2241 0.6339, -0.192 -0.2241 0.6299, -0.1941 -0.226 0.6339, -0.1941 -0.226 0.6299, -0.1966 -0.2274 0.6339, -0.1966 -0.2274 0.6299, -0.1998 -0.2283 0.6339, -0.1998 -0.2283 0.6299, -0.1957 -0.1915 0.6299, -0.1957 -0.1915 0.6339, -0.192 -0.1969 0.6339, -0.192 -0.1969 0.6299, -0.1891 -0.2038 0.6339, -0.1891 -0.2038 0.6299, -0.1849 -0.1915 0.6299, -0.1849 -0.1915 0.6339, -0.1774 -0.214 0.6299, -0.1774 -0.214 0.6339, -0.178 -0.2071 0.6339, -0.178 -0.2071 0.6299, -0.1804 -0.1991 0.6339, -0.1804 -0.1991 0.6299, -0.2008 -0.2419 0.6299, -0.2008 -0.2419 0.6339, -0.1956 -0.2413 0.6339, -0.1956 -0.2413 0.6299, -0.1909 -0.2397 0.6339, -0.1909 -0.2397 0.6299, -0.1869 -0.2372 0.6339, -0.1869 -0.2372 0.6299, -0.1831 -0.2332 0.6339, -0.1831 -0.2332 0.6299, -0.1802 -0.2283 0.6339, -0.1802 -0.2283 0.6299, -0.1782 -0.2219 0.6339, -0.1782 -0.2219 0.6299, -0.2252 -0.2218 0.6299, -0.2252 -0.2218 0.6339, -0.2246 -0.2239 0.6339, -0.2246 -0.2239 0.6299, -0.2213 -0.2311 0.6339, -0.2213 -0.2311 0.6299, -0.2181 -0.2353 0.6339, -0.2181 -0.2353 0.6299, -0.2163 -0.2369 0.6339, -0.2163 -0.2369 0.6299, -0.2121 -0.2396 0.6339, -0.2121 -0.2396 0.6299, -0.207 -0.2412 0.6339, -0.207 -0.2412 0.6299, -0.2255 -0.2218 0.6299, -0.2255 -0.2218 0.6339, -0.2488 -0.2455 0.6299, -0.2488 -0.2455 0.6339, -0.2465 -0.2454 0.6339, -0.2465 -0.2454 0.6299, -0.2416 -0.2444 0.6339, -0.2416 -0.2444 0.6299, -0.2372 -0.2424 0.6339, -0.2372 -0.2424 0.6299, -0.2331 -0.2393 0.6339, -0.2331 -0.2393 0.6299, -0.2295 -0.2346 0.6339, -0.2295 -0.2346 0.6299, -0.227 -0.229 0.6339, -0.227 -0.229 0.6299, -0.2783 -0.2104 0.6299, -0.2783 -0.2104 0.6339, -0.2778 -0.2177 0.6339, -0.2778 -0.2177 0.6299, -0.2777 -0.2182 0.6339, -0.2755 -0.227 0.6299, -0.2755 -0.227 0.6339, -0.2721 -0.2334 0.6339, -0.2721 -0.2334 0.6299, -0.2675 -0.2387 0.6339, -0.2675 -0.2387 0.6299, -0.2621 -0.2424 0.6339, -0.2621 -0.2424 0.6299, -0.2565 -0.2446 0.6339, -0.2565 -0.2446 0.6299, -0.2777 -0.2038 0.6339, -0.2772 -0.1988 0.6299, -0.2772 -0.1988 0.6339, -0.2745 -0.1903 0.6299, -0.2745 -0.1903 0.6339, -0.2339 -0.1686 0.6299, -0.2435 -0.1686 0.6299, -0.2339 -0.1686 0.6339, -0.2435 -0.1686 0.6339, -0.2435 -0.1314 0.6299, -0.2435 -0.1314 0.6339, -0.2339 -0.1314 0.6299, -0.2339 -0.1314 0.6339, -0.2048 -0.1002 0.6299, -0.2048 -0.1002 0.6339, -0.2108 -0.0995 0.6339, -0.2108 -0.0995 0.6299, -0.2158 -0.0977 0.6339, -0.2158 -0.0977 0.6299, -0.2212 -0.0939 0.6339, -0.2212 -0.0939 0.6299, -0.2328 -0.0801 0.6339, -0.2328 -0.0801 0.6299, -0.1882 -0.0813 0.6299, -0.1882 -0.0813 0.6339, -0.1888 -0.0869 0.6339, -0.1888 -0.0869 0.6299, -0.1903 -0.0916 0.6339, -0.1903 -0.0916 0.6299, -0.1922 -0.0946 0.6339, -0.1922 -0.0946 0.6299, -0.1944 -0.0969 0.6339, -0.1944 -0.0969 0.6299, -0.1972 -0.0986 0.6339, -0.1972 -0.0986 0.6299, -0.2005 -0.0998 0.6339, -0.2005 -0.0998 0.6299, -0.2002 -0.057 0.6299, -0.2002 -0.057 0.6339, -0.1971 -0.0602 0.6339, -0.1971 -0.0602 0.6299, -0.1922 -0.0672 0.6339, -0.1922 -0.0672 0.6299, -0.1893 -0.0739 0.6339, -0.1893 -0.0739 0.6299, -0.1882 -0.057 0.6299, -0.1882 -0.057 0.6339, -0.1774 -0.0825 0.6299, -0.1774 -0.0825 0.6339, -0.1776 -0.0784 0.6339, -0.1776 -0.0784 0.6299, -0.1792 -0.0705 0.6339, -0.1792 -0.0705 0.6299, -0.1825 -0.0638 0.6339, -0.1825 -0.0638 0.6299, -0.2038 -0.1122 0.6299, -0.2038 -0.1122 0.6339, -0.1981 -0.1117 0.6339, -0.1981 -0.1117 0.6299, -0.1927 -0.1101 0.6339, -0.1927 -0.1101 0.6299, -0.1881 -0.1074 0.6339, -0.1881 -0.1074 0.6299, -0.184 -0.1034 0.6339, -0.184 -0.1034 0.6299, -0.1803 -0.0975 0.6339, -0.1803 -0.0975 0.6299, -0.1782 -0.0909 0.6339, -0.1782 -0.0909 0.6299, -0.2388 -0.0902 0.6299, -0.2388 -0.0902 0.6339, -0.2382 -0.0912 0.6339, -0.2382 -0.0912 0.6299, -0.2275 -0.1036 0.6339, -0.2275 -0.1036 0.6299, -0.2208 -0.1083 0.6339, -0.2208 -0.1083 0.6299, -0.213 -0.1112 0.6339, -0.213 -0.1112 0.6299, -0.2663 -0.0663 0.6299, -0.2663 -0.0663 0.6339, -0.2616 -0.0668 0.6339, -0.2616 -0.0668 0.6299, -0.2581 -0.068 0.6339, -0.2581 -0.068 0.6299, -0.2547 -0.0702 0.6339, -0.2547 -0.0702 0.6299, -0.2501 -0.0749 0.6339, -0.2501 -0.0749 0.6299, -0.2663 -0.1146 0.6299, -0.2663 -0.1146 0.6339, -0.2771 -0.1146 0.6299, -0.2771 -0.1146 0.6339, -0.2771 -0.0534 0.6299, -0.2771 -0.0534 0.6339, -0.2722 -0.0534 0.6299, -0.2722 -0.0534 0.6339, -0.2343 -0.0781 0.6339, -0.2343 -0.0781 0.6299, -0.2412 -0.069 0.6339, -0.2412 -0.069 0.6299, -0.2494 -0.0607 0.6339, -0.2494 -0.0607 0.6299, -0.2556 -0.0567 0.6339, -0.2556 -0.0567 0.6299, -0.2629 -0.0543 0.6339, -0.2629 -0.0543 0.6299, -0.1813 -0.0354 0.6299, -0.1921 -0.0354 0.6299, -0.1813 -0.0354 0.6339, -0.1921 -0.0354 0.6339, -0.1882 -0.0191 0.6299, -0.1882 -0.0191 0.6339, -0.1892 -0.0275 0.6339, -0.1892 -0.0275 0.6299, -0.2287 0.0098 0.6299, -0.2287 0.0098 0.6339, -0.2182 0.009 0.6339, -0.2182 0.009 0.6299, -0.2069 0.006 0.6339, -0.2069 0.006 0.6299, -0.1995 0.0021 0.6339, -0.1995 0.0021 0.6299, -0.1942 -0.0027 0.6339, -0.1942 -0.0027 0.6299, -0.1909 -0.0076 0.6339, -0.1909 -0.0076 0.6299, -0.189 -0.0127 0.6339, -0.189 -0.0127 0.6299, -0.2287 0.0095 0.6299, -0.2287 0.0095 0.6339, -0.2147 -0.0131 0.6299, -0.2147 -0.0131 0.6339, -0.2151 -0.008 0.6339, -0.2151 -0.008 0.6299, -0.2166 -0.0028 0.6339, -0.2166 -0.0028 0.6299, -0.2193 0.0019 0.6339, -0.2193 0.0019 0.6299, -0.2231 0.0058 0.6339, -0.2231 0.0058 0.6299, -0.2452 -0.0414 0.6299, -0.2452 -0.0414 0.6339, -0.2397 -0.0411 0.6339, -0.2397 -0.0411 0.6299, -0.2318 -0.0391 0.6339, -0.2318 -0.0391 0.6299, -0.2259 -0.036 0.6339, -0.2259 -0.036 0.6299, -0.2211 -0.0318 0.6339, -0.2211 -0.0318 0.6299, -0.2175 -0.0263 0.6339, -0.2175 -0.0263 0.6299, -0.2154 -0.0205 0.6339, -0.2154 -0.0205 0.6299, -0.2783 -0.01 0.6299, -0.2783 -0.01 0.6339, -0.2777 -0.0166 0.6339, -0.2777 -0.0166 0.6299, -0.2777 -0.0167 0.6339, -0.2756 -0.0233 0.6299, -0.2756 -0.0233 0.6339, -0.2722 -0.029 0.6339, -0.2722 -0.029 0.6299, -0.2673 -0.034 0.6339, -0.2673 -0.034 0.6299, -0.2612 -0.038 0.6339, -0.2612 -0.038 0.6299, -0.2541 -0.0405 0.6339, -0.2541 -0.0405 0.6299, -0.2777 -0.0046 0.6339, -0.2774 -0.0024 0.6299, -0.2774 -0.0024 0.6339, -0.2753 0.0036 0.6299, -0.2753 0.0036 0.6339, -0.2721 0.0085 0.6299, -0.2721 0.0085 0.6339, -0.2674 0.0131 0.6299, -0.2674 0.0131 0.6339, -0.2603 0.0173 0.6299, -0.2603 0.0173 0.6339, -0.2492 0.0208 0.6299, -0.2492 0.0208 0.6339, -0.2337 0.0222 0.6299, -0.2337 0.0222 0.6339, -0.1774 -0.0188 0.6299, -0.1774 -0.0188 0.6339, -0.1782 -0.0109 0.6339, -0.1782 -0.0109 0.6299, -0.1809 -0.0028 0.6339, -0.1809 -0.0028 0.6299, -0.1853 0.004 0.6339, -0.1853 0.004 0.6299, -0.192 0.0104 0.6339, -0.192 0.0104 0.6299, -0.2027 0.0166 0.6339, -0.2027 0.0166 0.6299, -0.216 0.0206 0.6339, -0.216 0.0206 0.6299, -0.1801 -0.0331 0.6339, -0.1801 -0.0331 0.6299, -0.1782 -0.0274 0.6339, -0.1782 -0.0274 0.6299, -0.2443 0.009 0.6299, -0.2417 0.0088 0.6299, -0.2372 0.0077 0.6299, -0.2335 0.0057 0.6299, -0.2297 0.0024 0.6299, -0.2274 -0.0011 0.6299, -0.226 -0.0049 0.6299, -0.2255 -0.0098 0.6299, -0.2256 -0.0125 0.6299, -0.2264 -0.0165 0.6299, -0.2279 -0.0197 0.6299, -0.23 -0.0224 0.6299, -0.2321 -0.0243 0.6299, -0.2357 -0.0263 0.6299, -0.2404 -0.0277 0.6299, -0.2465 -0.0282 0.6299, -0.2515 -0.0278 0.6299, -0.2562 -0.0265 0.6299, -0.2601 -0.0243 0.6299, -0.2634 -0.0214 0.6299, -0.2656 -0.0181 0.6299, -0.2669 -0.0147 0.6299, -0.2675 -0.0099 0.6299, -0.2672 -0.0064 0.6299, -0.2661 -0.0028 0.6299, -0.2642 0.0003 0.6299, -0.2615 0.0031 0.6299, -0.2567 0.0063 0.6299, -0.2511 0.0083 0.6299, -0.2443 0.009 0.6339, -0.2417 0.0088 0.6339, -0.2372 0.0077 0.6339, -0.2335 0.0057 0.6339, -0.2297 0.0024 0.6339, -0.2274 -0.0011 0.6339, -0.226 -0.0049 0.6339, -0.2255 -0.0098 0.6339, -0.2256 -0.0125 0.6339, -0.2264 -0.0165 0.6339, -0.2279 -0.0197 0.6339, -0.23 -0.0224 0.6339, -0.2321 -0.0243 0.6339, -0.2357 -0.0263 0.6339, -0.2404 -0.0277 0.6339, -0.2465 -0.0282 0.6339, -0.2515 -0.0278 0.6339, -0.2562 -0.0265 0.6339, -0.2601 -0.0243 0.6339, -0.2634 -0.0214 0.6339, -0.2656 -0.0181 0.6339, -0.2669 -0.0147 0.6339, -0.2675 -0.0099 0.6339, -0.2672 -0.0064 0.6339, -0.2661 -0.0028 0.6339, -0.2642 0.0003 0.6339, -0.2615 0.0031 0.6339, -0.2567 0.0063 0.6339, -0.2511 0.0083 0.6339, -0.2339 0.039 0.6299, -0.2435 0.039 0.6299, -0.2339 0.039 0.6339, -0.2435 0.039 0.6339, -0.2435 0.0762 0.6299, -0.2435 0.0762 0.6339, -0.2339 0.0762 0.6299, -0.2339 0.0762 0.6339, -0.2612 0.093 0.6299, -0.272 0.093 0.6299, -0.2612 0.093 0.6339, -0.272 0.093 0.6339, -0.2763 0.1035 0.6299, -0.2783 0.1201 0.6299, -0.2783 0.1201 0.6339, -0.2782 0.1174 0.6339, -0.2782 0.1174 0.6299, -0.2777 0.1135 0.6339, -0.2763 0.1035 0.6339, -0.2297 0.1662 0.6299, -0.2297 0.1662 0.6339, -0.2415 0.1652 0.6339, -0.2415 0.1652 0.6299, -0.252 0.1621 0.6339, -0.252 0.1621 0.6299, -0.2612 0.1568 0.6339, -0.2612 0.1568 0.6299, -0.2687 0.1496 0.6339, -0.2687 0.1496 0.6299, -0.2738 0.1417 0.6339, -0.2738 0.1417 0.6299, -0.277 0.1322 0.6339, -0.277 0.1322 0.6299, -0.2777 0.1259 0.6339, -0.1774 0.1162 0.6299, -0.1774 0.1162 0.6339, -0.1782 0.1259 0.6339, -0.1782 0.1259 0.6299, -0.1814 0.1369 0.6339, -0.1814 0.1369 0.6299, -0.1867 0.1462 0.6339, -0.1867 0.1462 0.6299, -0.1952 0.1552 0.6339, -0.1952 0.1552 0.6299, -0.2045 0.161 0.6339, -0.2045 0.161 0.6299, -0.2157 0.1648 0.6339, -0.2157 0.1648 0.6299, -0.1813 0.093 0.6299, -0.1813 0.093 0.6339, -0.1783 0.1044 0.6339, -0.1783 0.1044 0.6299, -0.1945 0.093 0.6299, -0.1945 0.093 0.6339, -0.1882 0.1161 0.6299, -0.1882 0.1161 0.6339, -0.1898 0.1041 0.6339, -0.1898 0.1041 0.6299, -0.2289 0.153 0.6299, -0.2289 0.153 0.6339, -0.2212 0.1526 0.6339, -0.2212 0.1526 0.6299, -0.2107 0.1499 0.6339, -0.2107 0.1499 0.6299, -0.2031 0.1459 0.6339, -0.2031 0.1459 0.6299, -0.1966 0.1399 0.6339, -0.1966 0.1399 0.6299, -0.192 0.1331 0.6339, -0.192 0.1331 0.6299, -0.1893 0.1258 0.6339, -0.1893 0.1258 0.6299, -0.2675 0.1183 0.6299, -0.2675 0.1183 0.6339, -0.2664 0.1275 0.6339, -0.2664 0.1275 0.6299, -0.2638 0.1346 0.6339, -0.2638 0.1346 0.6299, -0.2597 0.1407 0.6339, -0.2597 0.1407 0.6299, -0.2549 0.1453 0.6339, -0.2549 0.1453 0.6299, -0.248 0.1494 0.6339, -0.248 0.1494 0.6299, -0.2396 0.152 0.6339, -0.2396 0.152 0.6299, -0.2621 0.0948 0.6339, -0.2621 0.0948 0.6299, -0.266 0.1052 0.6339, -0.266 0.1052 0.6299, -0.2732 0.2383 0.6299, -0.2588 0.2383 0.6299, -0.2732 0.2383 0.6339, -0.2588 0.2383 0.6339, -0.2675 0.212 0.6299, -0.2675 0.212 0.6339, -0.2668 0.2194 0.6339, -0.2668 0.2194 0.6299, -0.2632 0.2311 0.6339, -0.2632 0.2311 0.6299, -0.2528 0.1914 0.6299, -0.2528 0.1914 0.6339, -0.2567 0.1919 0.6339, -0.2567 0.1919 0.6299, -0.2597 0.193 0.6339, -0.2597 0.193 0.6299, -0.2617 0.1943 0.6339, -0.2617 0.1943 0.6299, -0.2636 0.1963 0.6339, -0.2636 0.1963 0.6299, -0.2656 0.1999 0.6339, -0.2656 0.1999 0.6299, -0.2669 0.2049 0.6339, -0.2669 0.2049 0.6299, -0.2318 0.2142 0.6299, -0.2318 0.2142 0.6339, -0.2394 0.1999 0.6339, -0.2394 0.1999 0.6299, -0.2395 0.1997 0.6339, -0.2395 0.1997 0.6299, -0.2431 0.1955 0.6339, -0.2431 0.1955 0.6299, -0.2464 0.193 0.6339, -0.2464 0.193 0.6299, -0.2492 0.1919 0.6339, -0.2492 0.1919 0.6299, -0.2039 0.2383 0.6299, -0.2039 0.2383 0.6339, -0.2087 0.2378 0.6339, -0.2087 0.2378 0.6299, -0.2139 0.2361 0.6339, -0.2139 0.2361 0.6299, -0.2186 0.2333 0.6339, -0.2186 0.2333 0.6299, -0.223 0.2287 0.6339, -0.223 0.2287 0.6299, -0.1774 0.2034 0.6299, -0.1774 0.2034 0.6339, -0.1785 0.2143 0.6339, -0.1785 0.2143 0.6299, -0.1812 0.2226 0.6339, -0.1812 0.2226 0.6299, -0.1844 0.2281 0.6339, -0.1844 0.2281 0.6299, -0.1881 0.2324 0.6339, -0.1881 0.2324 0.6299, -0.1923 0.2355 0.6339, -0.1923 0.2355 0.6299, -0.197 0.2374 0.6339, -0.197 0.2374 0.6299, -0.1801 0.1818 0.6299, -0.1801 0.1818 0.6339, -0.1779 0.1925 0.6339, -0.1779 0.1925 0.6299, -0.1945 0.1818 0.6299, -0.1945 0.1818 0.6339, -0.1882 0.2045 0.6299, -0.1882 0.2045 0.6339, -0.1887 0.1977 0.6339, -0.1887 0.1977 0.6299, -0.1907 0.1893 0.6339, -0.1907 0.1893 0.6299, -0.2026 0.2251 0.6299, -0.2026 0.2251 0.6339, -0.1996 0.2248 0.6339, -0.1996 0.2248 0.6299, -0.197 0.2238 0.6339, -0.197 0.2238 0.6299, -0.1949 0.2225 0.6339, -0.1949 0.2225 0.6299, -0.1927 0.2202 0.6339, -0.1927 0.2202 0.6299, -0.1905 0.2165 0.6339, -0.1905 0.2165 0.6299, -0.1889 0.2114 0.6339, -0.1889 0.2114 0.6299, -0.2225 0.2041 0.6299, -0.2225 0.2041 0.6339, -0.2177 0.2133 0.6339, -0.2177 0.2133 0.6299, -0.2141 0.2189 0.6339, -0.2141 0.2189 0.6299, -0.2115 0.2219 0.6339, -0.2115 0.2219 0.6299, -0.209 0.2236 0.6339, -0.209 0.2236 0.6299, -0.2063 0.2246 0.6339, -0.2063 0.2246 0.6299, -0.2517 0.1782 0.6299, -0.2517 0.1782 0.6339, -0.2463 0.1789 0.6339, -0.2463 0.1789 0.6299, -0.2412 0.1807 0.6339, -0.2412 0.1807 0.6299, -0.2363 0.184 0.6339, -0.2363 0.184 0.6299, -0.231 0.1896 0.6339, -0.231 0.1896 0.6299, -0.2783 0.2135 0.6339, -0.2777 0.2054 0.6339, -0.2783 0.2135 0.6299, -0.2775 0.2032 0.6299, -0.2775 0.2032 0.6339, -0.2748 0.1935 0.6339, -0.2748 0.1935 0.6299, -0.2712 0.1874 0.6339, -0.2712 0.1874 0.6299, -0.2677 0.1836 0.6339, -0.2677 0.1836 0.6299, -0.2635 0.1808 0.6339, -0.2635 0.1808 0.6299, -0.2586 0.179 0.6339, -0.2586 0.179 0.6299, -0.2747 0.2351 0.6339, -0.2747 0.2351 0.6299, -0.277 0.2262 0.6339, -0.277 0.2262 0.6299, -0.2777 0.2193 0.6339
            ]
        }
        coordIndex [
            0,1,2,-1,2,1,3,-1,4,5,6,-1,4,6,7,-1,7,6,8,-1,7,8,9,-1,9,8,3,-1,9,3,1,-1,10,11,12,-1,10,12,13,-1,13,12,14,-1,13,14,15,-1,15,14,16,-1,15,16,17,-1,17,16,18,-1,17,18,19,-1,19,18,20,-1,19,20,21,-1,21,20,22,-1,21,22,23,-1,23,22,5,-1,23,5,4,-1,24,25,26,-1,24,26,27,-1,27,26,28,-1,27,28,29,-1,29,28,30,-1,29,30,31,-1,31,30,32,-1,31,32,33,-1,33,32,34,-1,33,34,35,-1,35,34,36,-1,35,36,37,-1,37,36,11,-1,37,11,10,-1,24,38,25,-1,25,38,39,-1,38,40,39,-1,39,40,41,-1,40,42,41,-1,41,42,43,-1,44,45,46,-1,44,46,47,-1,47,46,48,-1,47,48,49,-1,49,48,50,-1,49,50,51,-1,51,50,52,-1,51,52,53,-1,53,52,54,-1,53,54,55,-1,55,54,56,-1,55,56,57,-1,57,56,58,-1,57,58,59,-1,59,58,43,-1,59,43,42,-1,60,61,62,-1,60,62,63,-1,63,62,64,-1,63,64,65,-1,65,64,66,-1,65,66,67,-1,67,66,68,-1,67,68,69,-1,69,68,70,-1,69,70,71,-1,71,70,72,-1,71,72,73,-1,73,72,74,-1,73,74,75,-1,75,74,45,-1,75,45,44,-1,76,77,78,-1,76,78,79,-1,79,78,80,-1,79,80,81,-1,81,80,61,-1,81,61,60,-1,76,82,77,-1,77,82,83,-1,84,85,86,-1,84,86,87,-1,87,86,88,-1,87,88,89,-1,89,88,83,-1,89,83,82,-1,90,91,92,-1,90,92,93,-1,93,92,94,-1,93,94,95,-1,95,94,96,-1,95,96,97,-1,97,96,98,-1,97,98,99,-1,99,98,100,-1,99,100,101,-1,101,100,102,-1,101,102,103,-1,103,102,85,-1,103,85,84,-1,104,105,106,-1,104,106,107,-1,107,106,108,-1,107,108,109,-1,109,108,110,-1,109,110,111,-1,111,110,112,-1,111,112,113,-1,113,112,114,-1,113,114,115,-1,115,114,116,-1,115,116,117,-1,117,116,91,-1,117,91,90,-1,104,118,105,-1,105,118,119,-1,120,121,122,-1,120,122,123,-1,123,122,124,-1,123,124,125,-1,125,124,126,-1,125,126,127,-1,127,126,128,-1,127,128,129,-1,129,128,130,-1,129,130,131,-1,131,130,132,-1,131,132,133,-1,133,132,119,-1,133,119,118,-1,134,135,136,-1,134,136,137,-1,137,136,138,-1,137,138,139,-1,138,140,139,-1,139,140,141,-1,139,141,142,-1,142,141,143,-1,142,143,144,-1,144,143,145,-1,144,145,146,-1,146,145,147,-1,146,147,148,-1,148,147,121,-1,148,121,120,-1,135,134,149,-1,149,134,150,-1,149,150,151,-1,151,150,152,-1,151,152,153,-1,153,152,0,-1,153,0,2,-1,40,38,42,-1,42,38,24,-1,42,24,59,-1,59,24,27,-1,1,0,9,-1,9,0,152,-1,9,152,7,-1,7,152,150,-1,7,150,4,-1,4,150,134,-1,4,134,23,-1,23,134,137,-1,23,137,21,-1,21,137,139,-1,21,139,19,-1,19,139,142,-1,19,142,17,-1,17,142,144,-1,17,144,15,-1,15,144,146,-1,15,146,13,-1,13,146,148,-1,13,148,10,-1,148,120,10,-1,10,120,123,-1,10,123,37,-1,37,123,125,-1,37,125,35,-1,35,125,127,-1,35,127,33,-1,33,127,129,-1,33,129,31,-1,31,129,131,-1,31,131,29,-1,29,131,133,-1,29,133,27,-1,27,133,118,-1,27,118,59,-1,59,118,104,-1,59,104,57,-1,57,104,107,-1,57,107,55,-1,55,107,109,-1,55,109,53,-1,53,109,111,-1,53,111,51,-1,51,111,113,-1,51,113,49,-1,49,113,115,-1,49,115,47,-1,47,115,117,-1,47,117,44,-1,44,117,90,-1,44,90,75,-1,75,90,93,-1,75,93,73,-1,73,93,95,-1,73,95,71,-1,71,95,97,-1,71,97,69,-1,69,97,99,-1,69,99,67,-1,67,99,101,-1,67,101,65,-1,65,101,103,-1,65,103,63,-1,63,103,84,-1,63,84,60,-1,60,84,87,-1,60,87,81,-1,81,87,89,-1,81,89,79,-1,79,89,82,-1,79,82,76,-1,154,155,156,-1,156,155,157,-1,155,158,157,-1,157,158,159,-1,158,160,159,-1,159,160,161,-1,160,154,161,-1,161,154,156,-1,160,158,154,-1,154,158,155,-1,162,163,164,-1,162,164,165,-1,165,164,166,-1,165,166,167,-1,167,166,168,-1,167,168,169,-1,169,168,170,-1,169,170,171,-1,172,173,174,-1,172,174,175,-1,175,174,176,-1,175,176,177,-1,177,176,178,-1,177,178,179,-1,179,178,180,-1,179,180,181,-1,181,180,182,-1,181,182,183,-1,183,182,184,-1,183,184,185,-1,185,184,163,-1,185,163,162,-1,186,187,188,-1,186,188,189,-1,189,188,190,-1,189,190,191,-1,191,190,192,-1,191,192,193,-1,193,192,173,-1,193,173,172,-1,186,194,187,-1,187,194,195,-1,196,197,198,-1,196,198,199,-1,199,198,200,-1,199,200,201,-1,201,200,202,-1,201,202,203,-1,203,202,195,-1,203,195,194,-1,204,205,206,-1,204,206,207,-1,207,206,208,-1,207,208,209,-1,209,208,210,-1,209,210,211,-1,211,210,212,-1,211,212,213,-1,213,212,214,-1,213,214,215,-1,215,214,216,-1,215,216,217,-1,217,216,197,-1,217,197,196,-1,218,219,220,-1,218,220,221,-1,221,220,222,-1,221,222,223,-1,223,222,224,-1,223,224,225,-1,225,224,226,-1,225,226,227,-1,227,226,205,-1,227,205,204,-1,228,229,230,-1,228,230,231,-1,231,230,232,-1,231,232,233,-1,233,232,234,-1,233,234,235,-1,235,234,236,-1,235,236,237,-1,237,236,219,-1,237,219,218,-1,228,238,229,-1,229,238,239,-1,238,240,239,-1,239,240,241,-1,240,242,241,-1,241,242,243,-1,242,244,243,-1,243,244,245,-1,171,170,246,-1,171,246,247,-1,247,246,248,-1,247,248,249,-1,249,248,250,-1,249,250,251,-1,251,250,252,-1,251,252,253,-1,253,252,254,-1,253,254,255,-1,255,254,245,-1,255,245,244,-1,240,238,242,-1,242,238,228,-1,242,228,244,-1,172,199,193,-1,193,199,201,-1,193,201,191,-1,191,201,203,-1,191,203,189,-1,189,203,194,-1,189,194,186,-1,244,228,255,-1,255,228,231,-1,255,231,253,-1,253,231,233,-1,253,233,251,-1,251,233,235,-1,251,235,249,-1,249,235,237,-1,249,237,247,-1,247,237,218,-1,247,218,171,-1,171,218,221,-1,171,221,169,-1,169,221,223,-1,169,223,167,-1,167,223,225,-1,167,225,165,-1,165,225,227,-1,165,227,162,-1,162,227,204,-1,162,204,185,-1,185,204,207,-1,185,207,183,-1,183,207,209,-1,183,209,181,-1,181,209,211,-1,181,211,179,-1,179,211,213,-1,179,213,177,-1,177,213,215,-1,177,215,175,-1,175,215,217,-1,175,217,172,-1,172,217,196,-1,172,196,199,-1,256,257,258,-1,258,257,259,-1,260,261,262,-1,260,262,263,-1,263,262,259,-1,263,259,257,-1,264,265,266,-1,264,266,267,-1,267,266,268,-1,267,268,269,-1,269,268,270,-1,269,270,271,-1,271,270,272,-1,271,272,273,-1,273,272,274,-1,273,274,275,-1,275,274,276,-1,275,276,277,-1,277,276,261,-1,277,261,260,-1,264,278,265,-1,265,278,279,-1,280,281,282,-1,280,282,283,-1,283,282,284,-1,283,284,285,-1,285,284,286,-1,285,286,287,-1,287,286,288,-1,287,288,289,-1,289,288,279,-1,289,279,278,-1,290,291,292,-1,290,292,293,-1,293,292,294,-1,293,294,295,-1,295,294,296,-1,295,296,297,-1,297,296,298,-1,297,298,299,-1,299,298,300,-1,299,300,301,-1,301,300,302,-1,301,302,303,-1,303,302,281,-1,303,281,280,-1,304,305,306,-1,304,306,307,-1,307,306,308,-1,307,308,309,-1,308,310,309,-1,309,310,311,-1,309,311,312,-1,312,311,313,-1,312,313,314,-1,314,313,315,-1,314,315,316,-1,316,315,317,-1,316,317,318,-1,318,317,291,-1,318,291,290,-1,305,304,319,-1,319,304,320,-1,319,320,321,-1,321,320,322,-1,321,322,323,-1,323,322,324,-1,323,324,325,-1,325,324,326,-1,325,326,327,-1,327,326,328,-1,327,328,329,-1,329,328,330,-1,329,330,331,-1,331,330,332,-1,331,332,333,-1,334,335,336,-1,334,336,337,-1,337,336,338,-1,337,338,339,-1,339,338,340,-1,339,340,341,-1,341,340,342,-1,341,342,343,-1,343,342,344,-1,343,344,345,-1,345,344,346,-1,345,346,347,-1,347,346,333,-1,347,333,332,-1,256,258,348,-1,256,348,349,-1,349,348,350,-1,349,350,351,-1,351,350,335,-1,351,335,334,-1,332,264,267,-1,257,256,349,-1,332,330,264,-1,264,330,352,-1,264,352,278,-1,278,352,353,-1,257,349,263,-1,263,349,351,-1,263,351,260,-1,260,351,334,-1,260,334,277,-1,277,334,337,-1,277,337,275,-1,275,337,339,-1,275,339,273,-1,273,339,341,-1,273,341,271,-1,271,341,343,-1,271,343,269,-1,269,343,345,-1,269,345,267,-1,267,345,347,-1,267,347,332,-1,353,354,278,-1,278,354,355,-1,278,355,289,-1,289,355,356,-1,289,356,287,-1,287,356,357,-1,287,357,285,-1,285,357,358,-1,285,358,283,-1,283,358,359,-1,283,359,280,-1,280,359,360,-1,280,360,303,-1,303,360,361,-1,303,361,301,-1,301,361,362,-1,301,362,299,-1,299,362,363,-1,299,363,297,-1,297,363,364,-1,297,364,295,-1,295,364,365,-1,295,365,293,-1,293,365,366,-1,293,366,290,-1,290,366,367,-1,290,367,318,-1,318,367,368,-1,318,368,316,-1,316,368,369,-1,316,369,314,-1,314,369,370,-1,314,370,312,-1,312,370,371,-1,312,371,309,-1,309,371,372,-1,309,372,307,-1,307,372,373,-1,307,373,304,-1,304,373,374,-1,304,374,320,-1,320,374,375,-1,320,375,322,-1,322,375,376,-1,322,376,324,-1,324,376,377,-1,324,377,326,-1,326,377,378,-1,326,378,328,-1,328,378,379,-1,328,379,330,-1,330,379,380,-1,330,380,352,-1,352,381,382,-1,352,382,353,-1,353,382,383,-1,353,383,354,-1,354,383,384,-1,354,384,355,-1,355,384,385,-1,355,385,356,-1,356,385,386,-1,356,386,357,-1,357,386,387,-1,357,387,358,-1,358,387,388,-1,358,388,359,-1,359,388,389,-1,359,389,360,-1,360,389,390,-1,360,390,361,-1,361,390,391,-1,361,391,362,-1,362,391,392,-1,362,392,363,-1,363,392,393,-1,363,393,364,-1,364,393,394,-1,364,394,365,-1,365,394,395,-1,365,395,366,-1,366,395,396,-1,366,396,367,-1,367,396,397,-1,367,397,368,-1,368,397,398,-1,368,398,369,-1,369,398,399,-1,369,399,370,-1,370,399,400,-1,370,400,371,-1,371,400,401,-1,371,401,372,-1,372,401,402,-1,372,402,373,-1,373,402,403,-1,373,403,374,-1,374,403,404,-1,374,404,375,-1,375,404,405,-1,375,405,376,-1,376,405,406,-1,376,406,377,-1,377,406,407,-1,377,407,378,-1,378,407,408,-1,378,408,379,-1,379,408,409,-1,379,409,380,-1,380,409,381,-1,380,381,352,-1,410,411,412,-1,412,411,413,-1,411,414,413,-1,413,414,415,-1,414,416,415,-1,415,416,417,-1,416,410,417,-1,417,410,412,-1,416,414,410,-1,410,414,411,-1,418,419,420,-1,420,419,421,-1,421,419,422,-1,423,424,425,-1,423,425,426,-1,426,425,427,-1,426,427,422,-1,422,427,428,-1,422,428,421,-1,429,430,431,-1,429,431,432,-1,432,431,433,-1,432,433,434,-1,434,433,435,-1,434,435,436,-1,436,435,437,-1,436,437,438,-1,438,437,439,-1,438,439,440,-1,440,439,441,-1,440,441,442,-1,442,441,423,-1,423,441,443,-1,423,443,424,-1,444,445,446,-1,444,446,447,-1,447,446,448,-1,447,448,449,-1,449,448,450,-1,449,450,451,-1,451,450,452,-1,451,452,453,-1,453,452,454,-1,453,454,455,-1,455,454,456,-1,455,456,457,-1,457,456,430,-1,457,430,429,-1,458,459,460,-1,458,460,461,-1,461,460,445,-1,461,445,444,-1,458,462,459,-1,459,462,463,-1,464,465,466,-1,464,466,467,-1,467,466,463,-1,467,463,462,-1,468,469,470,-1,468,470,471,-1,471,470,472,-1,471,472,473,-1,473,472,474,-1,473,474,475,-1,475,474,476,-1,475,476,477,-1,477,476,478,-1,477,478,479,-1,479,478,480,-1,479,480,481,-1,481,480,465,-1,481,465,464,-1,482,483,484,-1,482,484,485,-1,485,484,486,-1,485,486,487,-1,487,486,488,-1,487,488,489,-1,489,488,490,-1,489,490,491,-1,491,490,492,-1,491,492,493,-1,493,492,494,-1,493,494,495,-1,495,494,469,-1,495,469,468,-1,418,420,496,-1,418,496,497,-1,497,496,498,-1,497,498,499,-1,499,498,483,-1,499,483,482,-1,485,423,482,-1,482,423,426,-1,482,426,499,-1,499,426,422,-1,499,422,497,-1,497,422,419,-1,497,419,418,-1,462,458,467,-1,467,458,461,-1,467,461,464,-1,464,461,444,-1,464,444,481,-1,481,444,447,-1,481,447,479,-1,479,447,449,-1,479,449,477,-1,477,449,451,-1,477,451,475,-1,475,451,453,-1,475,453,473,-1,473,453,455,-1,473,455,471,-1,471,455,457,-1,471,457,468,-1,468,457,429,-1,468,429,495,-1,495,429,432,-1,495,432,493,-1,493,432,434,-1,493,434,491,-1,491,434,436,-1,491,436,489,-1,489,436,438,-1,489,438,487,-1,487,438,440,-1,487,440,485,-1,485,440,442,-1,485,442,423,-1,500,501,502,-1,502,501,503,-1,504,505,506,-1,504,506,507,-1,507,506,508,-1,507,508,509,-1,509,508,503,-1,509,503,501,-1,510,511,512,-1,510,512,513,-1,513,512,514,-1,513,514,515,-1,515,514,516,-1,515,516,517,-1,517,516,518,-1,517,518,519,-1,519,518,520,-1,519,520,521,-1,521,520,522,-1,521,522,523,-1,523,522,505,-1,523,505,504,-1,524,525,526,-1,524,526,527,-1,527,526,528,-1,527,528,529,-1,529,528,530,-1,529,530,531,-1,531,530,532,-1,531,532,533,-1,533,532,534,-1,533,534,535,-1,535,534,511,-1,535,511,510,-1,536,537,538,-1,536,538,539,-1,539,538,540,-1,539,540,541,-1,541,540,542,-1,541,542,543,-1,543,542,544,-1,543,544,545,-1,545,544,525,-1,545,525,524,-1,546,547,548,-1,546,548,549,-1,549,548,550,-1,549,550,551,-1,551,550,552,-1,551,552,553,-1,553,552,554,-1,553,554,555,-1,555,554,556,-1,555,556,557,-1,557,556,558,-1,557,558,559,-1,559,558,537,-1,559,537,536,-1,560,561,562,-1,560,562,563,-1,563,562,547,-1,563,547,546,-1,560,564,561,-1,561,564,565,-1,566,567,568,-1,566,568,569,-1,569,568,570,-1,569,570,571,-1,571,570,565,-1,571,565,564,-1,572,573,574,-1,572,574,575,-1,575,574,576,-1,575,576,577,-1,577,576,578,-1,577,578,579,-1,579,578,580,-1,579,580,581,-1,581,580,582,-1,581,582,583,-1,583,582,584,-1,583,584,585,-1,585,584,567,-1,585,567,566,-1,586,587,588,-1,586,588,589,-1,589,588,590,-1,589,590,591,-1,591,590,592,-1,591,592,593,-1,593,592,594,-1,593,594,595,-1,595,594,596,-1,595,596,597,-1,597,596,573,-1,597,573,572,-1,598,599,600,-1,598,600,601,-1,601,600,602,-1,601,602,603,-1,603,602,604,-1,603,604,605,-1,605,604,606,-1,605,606,607,-1,607,606,587,-1,607,587,586,-1,608,609,610,-1,610,609,611,-1,609,612,611,-1,611,612,613,-1,611,613,614,-1,614,613,615,-1,614,615,616,-1,616,615,617,-1,616,617,618,-1,618,617,619,-1,618,619,620,-1,620,619,621,-1,620,621,622,-1,622,621,599,-1,622,599,598,-1,500,502,623,-1,500,623,624,-1,624,623,625,-1,624,625,626,-1,626,625,610,-1,610,625,627,-1,610,627,608,-1,501,500,509,-1,509,500,624,-1,509,624,507,-1,507,624,626,-1,507,626,504,-1,504,626,610,-1,504,610,523,-1,523,610,611,-1,523,611,521,-1,521,611,614,-1,521,614,519,-1,519,614,616,-1,519,616,517,-1,517,616,618,-1,517,618,515,-1,515,618,620,-1,515,620,513,-1,513,620,622,-1,513,622,510,-1,510,622,598,-1,510,598,535,-1,535,598,601,-1,535,601,533,-1,533,601,603,-1,533,603,531,-1,531,603,605,-1,531,605,529,-1,529,605,607,-1,529,607,527,-1,527,607,586,-1,527,586,524,-1,524,586,589,-1,524,589,545,-1,545,589,591,-1,545,591,543,-1,543,591,593,-1,543,593,541,-1,541,593,595,-1,541,595,539,-1,539,595,597,-1,539,597,536,-1,536,597,572,-1,536,572,559,-1,559,572,575,-1,559,575,557,-1,557,575,577,-1,557,577,555,-1,555,577,579,-1,555,579,553,-1,553,579,581,-1,553,581,551,-1,551,581,583,-1,551,583,549,-1,549,583,585,-1,549,585,546,-1,546,585,566,-1,546,566,563,-1,563,566,569,-1,563,569,560,-1,560,569,571,-1,560,571,564,-1,
        ]
    }
}
Shape{
    appearance Appearance {
        material  Material 	{
            diffuseColor 0.25098039215686274 0.25098039215686274 0.25098039215686274
            specularColor 0.12549019607843137 0.12549019607843137 0.12549019607843137
            ambientIntensity 0.251
            transparency 0.0
            shininess 0.5
        }
    }
    geometry IndexedFaceSet {
        ccw TRUE
        solid FALSE
        coord DEF co Coordinate {
            point [
                -0.2672 -0.0064 0.6339, -0.2256 -0.0125 0.6339, -0.2255 -0.0098 0.6339, -0.2417 0.0088 0.6339, -0.2443 0.009 0.6339, -0.2675 -0.0099 0.6339, -0.2515 -0.0278 0.6339, -0.2465 -0.0282 0.6339, -0.2404 -0.0277 0.6339, -0.2372 0.0077 0.6339, -0.2274 -0.0011 0.6339, -0.2297 0.0024 0.6339, -0.2335 0.0057 0.6339, -0.2357 -0.0263 0.6339, -0.2321 -0.0243 0.6339, -0.23 -0.0224 0.6339, -0.2279 -0.0197 0.6339, -0.2264 -0.0165 0.6339, -0.2511 0.0083 0.6339, -0.2567 0.0063 0.6339, -0.2615 0.0031 0.6339, -0.2642 0.0003 0.6339, -0.2661 -0.0028 0.6339, -0.226 -0.0049 0.6339, -0.2656 -0.0181 0.6339, -0.2634 -0.0214 0.6339, -0.2669 -0.0147 0.6339, -0.2601 -0.0243 0.6339, -0.2562 -0.0265 0.6339
            ]
        }
        coordIndex [
            0,1,2,-1,3,4,2,-1,5,6,0,-1,0,6,7,-1,0,7,8,-1,3,2,9,-1,10,11,12,-1,8,13,0,-1,0,13,14,-1,0,14,15,-1,15,16,0,-1,0,16,17,-1,0,17,1,-1,4,18,2,-1,2,18,19,-1,2,19,20,-1,20,21,2,-1,2,21,22,-1,2,22,0,-1,9,2,12,-1,12,2,23,-1,12,23,10,-1,24,25,26,-1,26,25,27,-1,26,27,5,-1,5,27,28,-1,5,28,6,-1,
        ]
    }
}
Shape{
    appearance Appearance {
        material  Material 	{
            diffuseColor 1.0 1.0 1.0
            specularColor 0.8784313725490196 0.8784313725490196 0.8784313725490196
            ambientIntensity 1.0
            transparency 0.0
            shininess 0.5
        }
    }
    geometry IndexedFaceSet {
        ccw TRUE
        solid FALSE
        coord DEF co Coordinate {
            point [
                0.1512 0.0787 0.0039, 0.1512 0.0787 0.0, -0.1047 0.3346 0.0039, -0.1047 0.3346 0.0, -0.1047 -0.3346 0.0039, -0.1047 -0.3346 0.0, 0.1512 -0.0787 0.0039, 0.1512 -0.0787 0.0, 0.2693 -0.0787 0.0039, 0.7024 -0.0787 0.0, 0.2693 -0.0787 0.1575, 0.7024 -0.0787 0.1575, 0.2693 0.0787 0.0039, 0.2693 0.0787 0.1575, 0.7024 0.0787 0.1575, 0.7024 0.0787 0.0, -0.715 0.3346 0.0039, -0.8724 0.3346 0.0, -0.715 0.3346 0.1575, -0.8724 0.3346 0.1575, -0.715 -0.3346 0.0039, -0.715 -0.3346 0.1575, -0.8724 -0.3346 0.1575, -0.8724 -0.3346 0.0, -0.9512 -0.2559 0.1575, -0.9512 0.2559 0.1575, -0.9512 0.2559 0.0, -0.9512 -0.2559 0.0, 0.1512 0.6693 0.0039, 0.1512 0.6693 0.0, 0.1512 0.5118 0.0039, 0.1512 0.5118 0.0, 0.2693 0.5118 0.0039, 0.7024 0.5118 0.0, 0.2693 0.5118 0.1575, 0.7024 0.5118 0.1575, 0.2693 0.6693 0.0039, 0.2693 0.6693 0.1575, 0.7024 0.6693 0.1575, 0.7024 0.6693 0.0, 0.7024 -0.6693 0.1575, 0.7024 -0.5118 0.1575, 0.2693 -0.6693 0.1575, 0.2693 -0.5118 0.1575, 0.1512 -0.5118 0.0039, 0.1512 -0.5118 0.0, 0.1512 -0.6693 0.0039, 0.1512 -0.6693 0.0, 0.2693 -0.6693 0.0039, 0.7024 -0.6693 0.0, 0.2693 -0.5118 0.0039, 0.7024 -0.5118 0.0
            ]
        }
        coordIndex [
            0,1,2,-1,2,1,3,-1,4,5,6,-1,6,5,7,-1,6,7,8,-1,8,7,9,-1,8,9,10,-1,10,9,11,-1,1,0,12,-1,13,14,12,-1,12,14,15,-1,12,15,1,-1,2,3,16,-1,16,3,17,-1,16,17,18,-1,18,17,19,-1,5,4,20,-1,21,22,20,-1,20,22,23,-1,20,23,5,-1,10,11,13,-1,13,11,14,-1,22,21,18,-1,24,22,25,-1,25,22,18,-1,25,18,19,-1,25,19,26,-1,26,19,17,-1,24,25,27,-1,27,25,26,-1,22,24,23,-1,23,24,27,-1,14,11,15,-1,15,11,9,-1,28,29,30,-1,30,29,31,-1,30,31,32,-1,32,31,33,-1,32,33,34,-1,34,33,35,-1,29,28,36,-1,37,38,36,-1,36,38,39,-1,36,39,29,-1,35,38,34,-1,34,38,37,-1,38,35,39,-1,39,35,33,-1,39,33,29,-1,29,33,31,-1,40,41,42,-1,42,41,43,-1,44,45,46,-1,46,45,47,-1,46,47,48,-1,48,47,49,-1,48,49,42,-1,42,49,40,-1,45,44,50,-1,43,41,50,-1,50,41,51,-1,50,51,45,-1,41,40,51,-1,51,40,49,-1,51,49,45,-1,45,49,47,-1,
        ]
    }
}
Shape{
    appearance Appearance {
        material  Material 	{
            diffuseColor 0.25098039215686274 0.25098039215686274 0.25098039215686274
            specularColor 0.12549019607843137 0.12549019607843137 0.12549019607843137
            ambientIntensity 0.251
            transparency 0.0
            shininess 0.5
        }
    }
    geometry IndexedFaceSet {
        ccw TRUE
        solid FALSE
        coord DEF co Coordinate {
            point [
                -0.2553 -0.1368 0.0039, -0.1766 -0.1675 0.0039, -0.2553 -0.1368 0.0, -0.1766 -0.1675 0.0, -0.1766 -0.156 0.0039, -0.1766 -0.156 0.0, -0.1986 -0.148 0.0039, -0.1986 -0.148 0.0, -0.1986 -0.1155 0.0039, -0.1986 -0.1155 0.0, -0.1766 -0.108 0.0039, -0.1766 -0.108 0.0, -0.1766 -0.0965 0.0039, -0.1766 -0.0965 0.0, -0.2553 -0.1262 0.0039, -0.2553 -0.1262 0.0, -0.2073 -0.1182 0.0039, -0.2402 -0.1299 0.0039, -0.2429 -0.1307 0.0039, -0.2457 -0.1312 0.0039, -0.2457 -0.1314 0.0039, -0.2429 -0.1319 0.0039, -0.2402 -0.1326 0.0039, -0.2073 -0.1445 0.0039, -0.2073 -0.1182 0.0, -0.2073 -0.1445 0.0, -0.2402 -0.1299 0.0, -0.2429 -0.1307 0.0, -0.2457 -0.1312 0.0, -0.2457 -0.1314 0.0, -0.2429 -0.1319 0.0, -0.2402 -0.1326 0.0, -0.1766 -0.0487 0.0039, -0.1766 -0.0273 0.0039, -0.1766 -0.0487 0.0, -0.1766 -0.0273 0.0, -0.2553 -0.0273 0.0039, -0.2553 -0.0273 0.0, -0.2553 -0.0496 0.0039, -0.2553 -0.0496 0.0, -0.2169 -0.0907 0.0039, -0.2169 -0.0907 0.0, -0.2242 -0.0902 0.0, -0.2242 -0.0902 0.0039, -0.232 -0.0881 0.0, -0.232 -0.0881 0.0039, -0.2389 -0.0844 0.0, -0.2389 -0.0844 0.0039, -0.245 -0.0788 0.0, -0.245 -0.0788 0.0039, -0.2451 -0.0787 0.0, -0.2451 -0.0787 0.0039, -0.2509 -0.0701 0.0, -0.2509 -0.0701 0.0039, -0.2541 -0.0609 0.0, -0.2541 -0.0609 0.0039, -0.1775 -0.0587 0.0, -0.1775 -0.0587 0.0039, -0.1802 -0.0678 0.0, -0.1802 -0.0678 0.0039, -0.185 -0.0759 0.0, -0.185 -0.0759 0.0039, -0.1912 -0.0824 0.0, -0.1912 -0.0824 0.0039, -0.1982 -0.0868 0.0, -0.1982 -0.0868 0.0039, -0.2064 -0.0896 0.0, -0.2064 -0.0896 0.0039, -0.2356 -0.0749 0.0039, -0.2397 -0.0711 0.0039, -0.2434 -0.0653 0.0039, -0.2457 -0.0588 0.0039, -0.2467 -0.0495 0.0039, -0.2467 -0.0379 0.0039, -0.1852 -0.0379 0.0039, -0.1852 -0.0491 0.0039, -0.186 -0.0574 0.0039, -0.188 -0.064 0.0039, -0.1913 -0.0694 0.0039, -0.1957 -0.0739 0.0039, -0.201 -0.0771 0.0039, -0.2073 -0.0792 0.0039, -0.2167 -0.0801 0.0039, -0.2245 -0.0795 0.0039, -0.2308 -0.0776 0.0039, -0.2467 -0.0495 0.0, -0.2467 -0.0379 0.0, -0.2457 -0.0588 0.0, -0.2434 -0.0653 0.0, -0.2397 -0.0711 0.0, -0.2356 -0.0749 0.0, -0.2308 -0.0776 0.0, -0.2245 -0.0795 0.0, -0.2167 -0.0801 0.0, -0.2073 -0.0792 0.0, -0.201 -0.0771 0.0, -0.1957 -0.0739 0.0, -0.1913 -0.0694 0.0, -0.188 -0.064 0.0, -0.186 -0.0574 0.0, -0.1852 -0.0491 0.0, -0.1852 -0.0379 0.0, -0.1852 -0.012 0.0039, -0.1766 -0.012 0.0039, -0.1852 -0.012 0.0, -0.1766 -0.012 0.0, -0.1766 0.0303 0.0039, -0.1766 0.0303 0.0, -0.2553 0.0303 0.0039, -0.2553 0.0303 0.0, -0.2553 -0.0101 0.0039, -0.2553 -0.0101 0.0, -0.2467 -0.0101 0.0039, -0.2467 -0.0101 0.0, -0.2467 0.0197 0.0039, -0.2467 0.0197 0.0, -0.2207 0.0197 0.0039, -0.2207 0.0197 0.0, -0.2207 -0.0081 0.0039, -0.2207 -0.0081 0.0, -0.2121 -0.0081 0.0039, -0.2121 -0.0081 0.0, -0.2121 0.0197 0.0039, -0.2121 0.0197 0.0, -0.1852 0.0197 0.0039, -0.1852 0.0197 0.0, -0.1893 0.0456 0.0039, -0.1806 0.0456 0.0039, -0.1893 0.0456 0.0, -0.1806 0.0456 0.0, -0.1772 0.054 0.0039, -0.1756 0.0673 0.0039, -0.1756 0.0673 0.0, -0.1756 0.0652 0.0, -0.1756 0.0652 0.0039, -0.1761 0.062 0.0, -0.1772 0.054 0.0, -0.2144 0.1042 0.0039, -0.2144 0.1042 0.0, -0.205 0.1034 0.0, -0.205 0.1034 0.0039, -0.1966 0.1009 0.0, -0.1966 0.1009 0.0039, -0.1892 0.0967 0.0, -0.1892 0.0967 0.0039, -0.1832 0.0909 0.0, -0.1832 0.0909 0.0039, -0.1792 0.0846 0.0, -0.1792 0.0846 0.0039, -0.1766 0.077 0.0, -0.1766 0.077 0.0039, -0.1761 0.0719 0.0, -0.2563 0.0642 0.0039, -0.2563 0.0642 0.0, -0.2556 0.0719 0.0, -0.2556 0.0719 0.0039, -0.2531 0.0807 0.0, -0.2531 0.0807 0.0039, -0.2489 0.0882 0.0, -0.2489 0.0882 0.0039, -0.242 0.0954 0.0, -0.242 0.0954 0.0039, -0.2346 0.1001 0.0, -0.2346 0.1001 0.0039, -0.2256 0.1031 0.0, -0.2256 0.1031 0.0039, -0.2531 0.0456 0.0039, -0.2531 0.0456 0.0, -0.2556 0.0547 0.0, -0.2556 0.0547 0.0039, -0.2426 0.0456 0.0039, -0.2426 0.0456 0.0, -0.2476 0.0641 0.0039, -0.2476 0.0641 0.0, -0.2464 0.0545 0.0, -0.2464 0.0545 0.0039, -0.2151 0.0937 0.0039, -0.2151 0.0937 0.0, -0.2212 0.0933 0.0, -0.2212 0.0933 0.0039, -0.2296 0.0912 0.0, -0.2296 0.0912 0.0039, -0.2357 0.0879 0.0, -0.2357 0.0879 0.0039, -0.241 0.0832 0.0, -0.241 0.0832 0.0039, -0.2446 0.0777 0.0, -0.2446 0.0777 0.0039, -0.2467 0.0718 0.0, -0.2467 0.0718 0.0039, -0.1842 0.0659 0.0039, -0.1842 0.0659 0.0, -0.1851 0.0732 0.0, -0.1851 0.0732 0.0039, -0.1872 0.0789 0.0, -0.1872 0.0789 0.0039, -0.1904 0.0838 0.0, -0.1904 0.0838 0.0039, -0.1943 0.0875 0.0, -0.1943 0.0875 0.0039, -0.1998 0.0907 0.0, -0.1998 0.0907 0.0039, -0.2066 0.0929 0.0, -0.2066 0.0929 0.0039, -0.1885 0.0471 0.0, -0.1885 0.0471 0.0039, -0.1854 0.0554 0.0, -0.1854 0.0554 0.0039, -0.1852 0.1109 0.0039, -0.1766 0.1109 0.0039, -0.1852 0.1109 0.0, -0.1766 0.1109 0.0, -0.1766 0.1513 0.0039, -0.1766 0.1513 0.0, -0.2553 0.1513 0.0039, -0.2553 0.1513 0.0, -0.2553 0.1407 0.0039, -0.2553 0.1407 0.0, -0.1852 0.1407 0.0039, -0.1852 0.1407 0.0
            ]
        }
        coordIndex [
            0,1,2,-1,2,1,3,-1,1,4,3,-1,3,4,5,-1,4,6,5,-1,5,6,7,-1,6,8,7,-1,7,8,9,-1,8,10,9,-1,9,10,11,-1,10,12,11,-1,11,12,13,-1,12,14,13,-1,13,14,15,-1,14,0,15,-1,15,0,2,-1,16,17,14,-1,12,10,8,-1,17,18,14,-1,14,18,19,-1,14,19,0,-1,0,19,20,-1,0,20,21,-1,21,22,0,-1,0,22,23,-1,0,23,1,-1,4,1,6,-1,6,1,23,-1,6,23,8,-1,8,23,16,-1,8,16,12,-1,12,16,14,-1,16,23,24,-1,24,23,25,-1,17,16,26,-1,26,16,24,-1,17,26,27,-1,17,27,18,-1,18,27,28,-1,18,28,19,-1,20,19,29,-1,29,19,28,-1,20,29,30,-1,20,30,21,-1,21,30,31,-1,21,31,22,-1,23,22,25,-1,25,22,31,-1,32,33,34,-1,34,33,35,-1,33,36,35,-1,35,36,37,-1,36,38,37,-1,37,38,39,-1,40,41,42,-1,40,42,43,-1,43,42,44,-1,43,44,45,-1,45,44,46,-1,45,46,47,-1,47,46,48,-1,47,48,49,-1,49,48,50,-1,49,50,51,-1,51,50,52,-1,51,52,53,-1,53,52,54,-1,53,54,55,-1,55,54,39,-1,55,39,38,-1,32,34,56,-1,32,56,57,-1,57,56,58,-1,57,58,59,-1,59,58,60,-1,59,60,61,-1,61,60,62,-1,61,62,63,-1,63,62,64,-1,63,64,65,-1,65,64,66,-1,65,66,67,-1,67,66,41,-1,67,41,40,-1,45,47,68,-1,68,47,49,-1,68,49,69,-1,69,49,51,-1,69,51,70,-1,70,51,53,-1,70,53,71,-1,71,53,55,-1,71,55,72,-1,72,55,38,-1,72,38,73,-1,73,38,36,-1,73,36,74,-1,74,36,33,-1,74,33,75,-1,75,33,32,-1,75,32,76,-1,76,32,57,-1,76,57,77,-1,77,57,59,-1,77,59,78,-1,78,59,61,-1,78,61,79,-1,79,61,63,-1,79,63,80,-1,80,63,65,-1,80,65,81,-1,81,65,67,-1,81,67,82,-1,82,67,40,-1,82,40,83,-1,83,40,43,-1,83,43,84,-1,84,43,45,-1,84,45,68,-1,72,73,85,-1,85,73,86,-1,72,85,87,-1,72,87,71,-1,71,87,88,-1,71,88,70,-1,70,88,89,-1,70,89,69,-1,69,89,90,-1,69,90,68,-1,68,90,91,-1,68,91,84,-1,84,91,92,-1,84,92,83,-1,83,92,93,-1,83,93,82,-1,82,93,94,-1,82,94,81,-1,81,94,95,-1,81,95,80,-1,80,95,96,-1,80,96,79,-1,79,96,97,-1,79,97,78,-1,78,97,98,-1,78,98,77,-1,77,98,99,-1,77,99,76,-1,76,99,100,-1,76,100,75,-1,74,75,101,-1,101,75,100,-1,73,74,86,-1,86,74,101,-1,102,103,104,-1,104,103,105,-1,103,106,105,-1,105,106,107,-1,106,108,107,-1,107,108,109,-1,108,110,109,-1,109,110,111,-1,110,112,111,-1,111,112,113,-1,112,114,113,-1,113,114,115,-1,114,116,115,-1,115,116,117,-1,116,118,117,-1,117,118,119,-1,118,120,119,-1,119,120,121,-1,120,122,121,-1,121,122,123,-1,122,124,123,-1,123,124,125,-1,124,102,125,-1,125,102,104,-1,106,103,102,-1,102,124,106,-1,106,124,122,-1,106,122,108,-1,112,110,114,-1,114,110,108,-1,114,108,116,-1,116,108,122,-1,116,122,118,-1,118,122,120,-1,126,127,128,-1,128,127,129,-1,129,127,130,-1,131,132,133,-1,131,133,134,-1,134,133,135,-1,134,135,130,-1,130,135,136,-1,130,136,129,-1,137,138,139,-1,137,139,140,-1,140,139,141,-1,140,141,142,-1,142,141,143,-1,142,143,144,-1,144,143,145,-1,144,145,146,-1,146,145,147,-1,146,147,148,-1,148,147,149,-1,148,149,150,-1,150,149,131,-1,131,149,151,-1,131,151,132,-1,152,153,154,-1,152,154,155,-1,155,154,156,-1,155,156,157,-1,157,156,158,-1,157,158,159,-1,159,158,160,-1,159,160,161,-1,161,160,162,-1,161,162,163,-1,163,162,164,-1,163,164,165,-1,165,164,138,-1,165,138,137,-1,166,167,168,-1,166,168,169,-1,169,168,153,-1,169,153,152,-1,166,170,167,-1,167,170,171,-1,172,173,174,-1,172,174,175,-1,175,174,171,-1,175,171,170,-1,176,177,178,-1,176,178,179,-1,179,178,180,-1,179,180,181,-1,181,180,182,-1,181,182,183,-1,183,182,184,-1,183,184,185,-1,185,184,186,-1,185,186,187,-1,187,186,188,-1,187,188,189,-1,189,188,173,-1,189,173,172,-1,190,191,192,-1,190,192,193,-1,193,192,194,-1,193,194,195,-1,195,194,196,-1,195,196,197,-1,197,196,198,-1,197,198,199,-1,199,198,200,-1,199,200,201,-1,201,200,202,-1,201,202,203,-1,203,202,177,-1,203,177,176,-1,126,128,204,-1,126,204,205,-1,205,204,206,-1,205,206,207,-1,207,206,191,-1,207,191,190,-1,193,131,190,-1,190,131,134,-1,190,134,207,-1,207,134,130,-1,207,130,205,-1,205,130,127,-1,205,127,126,-1,170,166,175,-1,175,166,169,-1,175,169,172,-1,172,169,152,-1,172,152,189,-1,189,152,155,-1,189,155,187,-1,187,155,157,-1,187,157,185,-1,185,157,159,-1,185,159,183,-1,183,159,161,-1,183,161,181,-1,181,161,163,-1,181,163,179,-1,179,163,165,-1,179,165,176,-1,176,165,137,-1,176,137,203,-1,203,137,140,-1,203,140,201,-1,201,140,142,-1,201,142,199,-1,199,142,144,-1,199,144,197,-1,197,144,146,-1,197,146,195,-1,195,146,148,-1,195,148,193,-1,193,148,150,-1,193,150,131,-1,208,209,210,-1,210,209,211,-1,209,212,211,-1,211,212,213,-1,212,214,213,-1,213,214,215,-1,214,216,215,-1,215,216,217,-1,216,218,217,-1,217,218,219,-1,218,208,219,-1,219,208,210,-1,216,214,218,-1,218,214,212,-1,218,212,208,-1,208,212,209,-1,
        ]
    }
}
Shape{
    appearance Appearance {
        material  Material 	{
            diffuseColor 1.0 1.0 1.0
            specularColor 0.8784313725490196 0.8784313725490196 0.8784313725490196
            ambientIntensity 1.0
            transparency 0.0
            shininess 0.5
        }
    }
    geometry IndexedFaceSet {
        ccw TRUE
        solid FALSE
        coord DEF co Coordinate {
            point [
                -0.2073 -0.1182 0.0, -0.2073 -0.1445 0.0, -0.2402 -0.1299 0.0, -0.2402 -0.1326 0.0, -0.2429 -0.1307 0.0, -0.2429 -0.1319 0.0, -0.2457 -0.1312 0.0, -0.2457 -0.1314 0.0, -0.2467 -0.0379 0.0, -0.1852 -0.0379 0.0, -0.2467 -0.0495 0.0, -0.1852 -0.0491 0.0, -0.2073 -0.0792 0.0, -0.2167 -0.0801 0.0, -0.2245 -0.0795 0.0, -0.2308 -0.0776 0.0, -0.2457 -0.0588 0.0, -0.186 -0.0574 0.0, -0.188 -0.064 0.0, -0.1913 -0.0694 0.0, -0.2356 -0.0749 0.0, -0.2397 -0.0711 0.0, -0.2434 -0.0653 0.0, -0.1957 -0.0739 0.0, -0.201 -0.0771 0.0
            ]
        }
        coordIndex [
            0,1,2,-1,2,1,3,-1,2,3,4,-1,4,3,5,-1,4,5,6,-1,6,5,7,-1,8,9,10,-1,10,9,11,-1,12,13,10,-1,13,14,10,-1,10,14,15,-1,10,15,16,-1,11,17,10,-1,10,17,18,-1,10,18,19,-1,20,21,15,-1,15,21,22,-1,15,22,16,-1,19,23,10,-1,10,23,24,-1,10,24,12,-1,
        ]
    }
}